<svg width="512" height="512" xmlns="http://www.w3.org/2000/svg"><g fill="none" fill-rule="evenodd"><circle fill="#373737" cx="256" cy="256" r="256"/><g transform="translate(84 83)" fill-rule="nonzero"><path d="m81.498 344.09 28.774-49.716 28.786-49.738-.998-.575c-.554-.319-1.909-1.248-3.029-2.07-12.116-8.842-19.52-22.305-20.35-37.01l-.168-2.878-1.503-.008c-37.31-.044-112.813.22-112.952.405-.074.096 27.073 47.293 81.44 141.59ZM74.53 15.836c13.736 23.787 66.812 115.854 66.95 116.092.084.125 1.443-.464 3.044-1.267 15.545-7.912 34.088-9.342 50.265-3.894 3.609 1.217 8.606 3.355 10.693 4.559l1.323.764 38.135-66.015L283.058.09l-217 .455c.172-.32.172-.333 0-.039-.1.176 3.725 7.057 8.472 15.33ZM218.81 269.949c45.166 79.535 43.269 76.242 43.768 76.085.789-.255 81.618-140.06 81.479-141.239l-.09-.705-54.711.323c-30.106.173-55.622.331-56.679.342l-1.932.01-.243 3.36c-.425 5.806-1.84 11.454-4.266 16.933-3.536 8.012-9.878 15.526-17.344 20.581l-2.735 1.859 12.753 22.451Z" fill="#E8E8E8"/><circle fill="#373737" cx="172" cy="188" r="71"/><circle fill="#FFF" cx="172" cy="188" r="36"/></g></g></svg>