<svg height="512" width="512" xmlns="http://www.w3.org/2000/svg"><g fill="none" fill-rule="evenodd"><path d="m0 0h512v512h-512z" fill="#373737"/><path d="m192.957 524.807 34.27-59.356 34.284-59.383-1.188-.686c-.66-.381-2.274-1.49-3.608-2.472-14.431-10.556-23.248-26.63-24.237-44.187l-.2-3.435-1.79-.01c-44.436-.052-134.361.262-134.527.484-.088.114 32.244 56.463 96.996 169.045zm-8.687-392.812c16.38 28.381 79.673 138.232 79.837 138.515.1.15 1.721-.553 3.63-1.511 18.538-9.44 40.65-11.147 59.941-4.647 4.303 1.453 10.262 4.004 12.751 5.44l1.578.912 45.475-78.766 45.455-78.73-258.767.542c.203-.382.203-.397 0-.046-.122.21 4.44 8.42 10.1 18.291zm172.115 303.91c53.926 94.75 51.66 90.826 52.256 90.64.942-.304 97.448-166.854 97.282-168.257l-.107-.84-65.323.385c-35.945.205-66.409.394-67.671.407l-2.307.012-.29 4.003c-.508 6.916-2.197 13.645-5.094 20.172-4.221 9.544-11.794 18.496-20.708 24.518l-3.265 2.214z" fill="#e8e8e8" fill-rule="nonzero" transform="translate(-43 -55)"/><circle cx="258.427" cy="283.22" fill="#373737" r="85"/><circle cx="258.427" cy="283.22" fill="#fff" r="42.5"/></g></svg>